<?xml version="1.0" encoding="UTF-8"?>
<svg xmlns="http://www.w3.org/2000/svg" xmlns:xlink="http://www.w3.org/1999/xlink" width="40px" height="40px" viewBox="0 0 40 40" version="1.1">
<g id="surface1">
<path style=" stroke:none;fill-rule:nonzero;fill:rgb(2.352941%,7.450981%,100%);fill-opacity:1;" d="M 19.550781 0.445312 C 19.820312 0.445312 20.089844 0.445312 20.355469 0.441406 C 21.804688 0.433594 23.242188 0.457031 24.6875 0.578125 C 24.746094 0.582031 24.800781 0.585938 24.863281 0.589844 C 26.707031 0.746094 28.539062 1.019531 30.3125 1.5625 C 30.414062 1.59375 30.414062 1.59375 30.515625 1.625 C 32.335938 2.191406 33.933594 3.050781 35.3125 4.375 C 35.375 4.433594 35.441406 4.492188 35.507812 4.554688 C 38.980469 7.859375 39.410156 13.464844 39.53125 17.96875 C 39.628906 22.777344 39.6875 28.167969 37.5 32.578125 C 37.460938 32.65625 37.460938 32.65625 37.425781 32.734375 C 36.09375 35.46875 33.691406 37.214844 30.882812 38.226562 C 24.824219 40.300781 16.808594 40.195312 10.625 38.671875 C 10.554688 38.65625 10.484375 38.636719 10.414062 38.621094 C 8.460938 38.132812 6.628906 37.304688 5.078125 36.015625 C 5.007812 35.957031 4.9375 35.898438 4.867188 35.839844 C 4.382812 35.421875 3.980469 34.960938 3.59375 34.453125 C 3.546875 34.390625 3.5 34.332031 3.453125 34.269531 C 2.011719 32.292969 1.339844 29.953125 0.921875 27.574219 C 0.910156 27.496094 0.910156 27.496094 0.894531 27.414062 C 0.480469 25.09375 0.429688 22.71875 0.4375 20.367188 C 0.441406 20.023438 0.4375 19.679688 0.4375 19.335938 C 0.421875 14.136719 0.816406 8.332031 4.582031 4.375 C 8.410156 0.648438 14.53125 0.4375 19.550781 0.445312 Z M 8.058594 15.527344 C 7.558594 16.140625 7.335938 16.820312 7.328125 17.597656 C 7.328125 17.65625 7.328125 17.710938 7.328125 17.769531 C 7.328125 17.957031 7.324219 18.144531 7.324219 18.332031 C 7.324219 18.394531 7.324219 18.457031 7.324219 18.523438 C 7.324219 18.863281 7.320312 19.203125 7.320312 19.542969 C 7.320312 19.894531 7.316406 20.242188 7.3125 20.59375 C 7.3125 20.863281 7.3125 21.132812 7.3125 21.402344 C 7.3125 21.53125 7.308594 21.660156 7.308594 21.789062 C 7.296875 22.929688 7.476562 23.777344 8.285156 24.621094 C 8.6875 25.003906 9.078125 25.226562 9.609375 25.390625 C 9.652344 25.40625 9.695312 25.417969 9.742188 25.433594 C 9.988281 25.480469 10.222656 25.480469 10.472656 25.484375 C 10.558594 25.484375 10.558594 25.484375 10.640625 25.484375 C 10.824219 25.484375 11.003906 25.488281 11.1875 25.488281 C 11.25 25.488281 11.3125 25.488281 11.375 25.488281 C 11.707031 25.488281 12.039062 25.492188 12.367188 25.492188 C 12.707031 25.492188 13.046875 25.496094 13.386719 25.5 C 13.648438 25.5 13.914062 25.5 14.175781 25.5 C 14.300781 25.5 14.425781 25.503906 14.550781 25.503906 C 15.582031 25.515625 16.449219 25.363281 17.265625 24.6875 C 17.488281 24.464844 17.691406 24.226562 17.890625 23.984375 C 17.957031 23.910156 18.019531 23.835938 18.089844 23.761719 C 18.152344 23.6875 18.21875 23.613281 18.285156 23.535156 C 18.375 23.433594 18.375 23.433594 18.46875 23.328125 C 18.613281 23.136719 18.613281 23.136719 18.59375 22.925781 C 18.5 22.699219 18.386719 22.5625 18.21875 22.382812 C 18.160156 22.324219 18.105469 22.261719 18.046875 22.199219 C 17.996094 22.144531 17.945312 22.089844 17.890625 22.03125 C 17.785156 21.902344 17.679688 21.773438 17.578125 21.640625 C 17.277344 21.761719 17.128906 21.941406 16.929688 22.191406 C 16.867188 22.269531 16.804688 22.34375 16.742188 22.425781 C 16.628906 22.570312 16.519531 22.714844 16.410156 22.859375 C 16.367188 22.921875 16.320312 22.984375 16.273438 23.046875 C 16.234375 23.101562 16.195312 23.15625 16.15625 23.214844 C 15.90625 23.472656 15.640625 23.582031 15.28125 23.625 C 15.140625 23.625 15.140625 23.625 14.992188 23.625 C 14.910156 23.625 14.910156 23.625 14.828125 23.625 C 14.65625 23.628906 14.480469 23.628906 14.304688 23.628906 C 14.179688 23.628906 14.058594 23.628906 13.9375 23.628906 C 13.679688 23.628906 13.421875 23.628906 13.167969 23.628906 C 12.839844 23.628906 12.511719 23.628906 12.183594 23.632812 C 11.929688 23.632812 11.679688 23.632812 11.425781 23.632812 C 11.304688 23.632812 11.183594 23.632812 11.0625 23.632812 C 10.894531 23.636719 10.722656 23.632812 10.554688 23.632812 C 10.410156 23.632812 10.410156 23.632812 10.265625 23.632812 C 9.886719 23.578125 9.640625 23.40625 9.390625 23.121094 C 9.203125 22.816406 9.207031 22.554688 9.203125 22.207031 C 9.203125 22.152344 9.203125 22.101562 9.203125 22.046875 C 9.203125 21.871094 9.199219 21.695312 9.199219 21.515625 C 9.199219 21.457031 9.199219 21.398438 9.199219 21.335938 C 9.199219 21.015625 9.195312 20.695312 9.195312 20.375 C 9.195312 20.046875 9.191406 19.71875 9.1875 19.390625 C 9.1875 19.136719 9.1875 18.882812 9.1875 18.628906 C 9.1875 18.507812 9.183594 18.386719 9.183594 18.265625 C 9.171875 17.082031 9.171875 17.082031 9.53125 16.640625 C 9.917969 16.351562 10.261719 16.320312 10.734375 16.316406 C 10.835938 16.316406 10.9375 16.3125 11.042969 16.3125 C 11.152344 16.3125 11.261719 16.3125 11.375 16.3125 C 11.488281 16.3125 11.601562 16.3125 11.714844 16.3125 C 11.953125 16.308594 12.191406 16.308594 12.429688 16.308594 C 12.734375 16.308594 13.039062 16.308594 13.34375 16.304688 C 13.582031 16.304688 13.816406 16.304688 14.050781 16.304688 C 14.164062 16.300781 14.273438 16.300781 14.386719 16.300781 C 15.632812 16.289062 15.632812 16.289062 16.132812 16.734375 C 16.191406 16.800781 16.25 16.871094 16.308594 16.9375 C 16.375 17.015625 16.441406 17.089844 16.511719 17.171875 C 16.765625 17.472656 17.007812 17.785156 17.25 18.097656 C 17.496094 18.414062 17.75 18.71875 18.007812 19.023438 C 18.339844 19.414062 18.660156 19.8125 18.976562 20.214844 C 19.21875 20.527344 19.46875 20.832031 19.726562 21.132812 C 20.023438 21.476562 20.308594 21.828125 20.585938 22.1875 C 20.902344 22.597656 21.230469 22.996094 21.570312 23.386719 C 21.789062 23.644531 22 23.90625 22.207031 24.175781 C 22.734375 24.835938 23.371094 25.3125 24.21875 25.46875 C 24.574219 25.488281 24.925781 25.488281 25.28125 25.484375 C 25.382812 25.484375 25.484375 25.484375 25.589844 25.484375 C 25.855469 25.484375 26.125 25.480469 26.394531 25.480469 C 26.667969 25.476562 26.941406 25.476562 27.214844 25.476562 C 27.753906 25.476562 28.289062 25.472656 28.828125 25.46875 C 28.828125 24.875 28.828125 24.28125 28.828125 23.671875 C 28.695312 23.671875 28.5625 23.671875 28.429688 23.667969 C 27.988281 23.667969 27.550781 23.664062 27.113281 23.65625 C 26.847656 23.65625 26.585938 23.652344 26.320312 23.652344 C 26.011719 23.648438 25.707031 23.644531 25.402344 23.640625 C 25.308594 23.640625 25.214844 23.640625 25.117188 23.640625 C 24.503906 23.628906 24.136719 23.570312 23.679688 23.140625 C 23.621094 23.070312 23.621094 23.070312 23.566406 23 C 23.5 22.917969 23.5 22.917969 23.433594 22.835938 C 23.390625 22.78125 23.347656 22.722656 23.300781 22.667969 C 23.253906 22.605469 23.207031 22.546875 23.15625 22.488281 C 23.015625 22.308594 22.875 22.132812 22.734375 21.953125 C 22.695312 21.902344 22.65625 21.851562 22.613281 21.800781 C 22.472656 21.617188 22.328125 21.433594 22.183594 21.253906 C 21.910156 20.902344 21.625 20.5625 21.335938 20.226562 C 21.042969 19.878906 20.757812 19.519531 20.480469 19.160156 C 20.199219 18.804688 19.914062 18.460938 19.617188 18.117188 C 19.363281 17.816406 19.113281 17.503906 18.871094 17.191406 C 18.570312 16.804688 18.257812 16.421875 17.941406 16.050781 C 17.882812 15.984375 17.882812 15.984375 17.824219 15.914062 C 17.085938 15.058594 16.449219 14.597656 15.3125 14.453125 C 15.144531 14.445312 14.976562 14.441406 14.808594 14.441406 C 14.710938 14.441406 14.617188 14.4375 14.515625 14.4375 C 14.414062 14.4375 14.308594 14.4375 14.203125 14.4375 C 14.152344 14.4375 14.097656 14.4375 14.042969 14.4375 C 13.761719 14.433594 13.476562 14.433594 13.195312 14.433594 C 12.90625 14.433594 12.617188 14.433594 12.328125 14.429688 C 12.105469 14.429688 11.878906 14.429688 11.65625 14.429688 C 11.5 14.425781 11.339844 14.425781 11.183594 14.425781 C 9.972656 14.425781 8.917969 14.625 8.058594 15.527344 Z M 22.34375 15.546875 C 22.125 15.800781 21.921875 16.0625 21.71875 16.328125 C 21.671875 16.390625 21.625 16.453125 21.574219 16.515625 C 21.464844 16.660156 21.359375 16.808594 21.25 16.953125 C 21.601562 17.429688 21.96875 17.898438 22.34375 18.359375 C 22.617188 18.152344 22.832031 17.945312 23.042969 17.675781 C 23.09375 17.609375 23.148438 17.539062 23.203125 17.46875 C 23.34375 17.289062 23.476562 17.105469 23.609375 16.917969 C 23.859375 16.582031 24.117188 16.410156 24.53125 16.328125 C 24.699219 16.320312 24.871094 16.316406 25.039062 16.316406 C 25.140625 16.316406 25.246094 16.3125 25.351562 16.3125 C 25.464844 16.3125 25.574219 16.3125 25.6875 16.3125 C 25.804688 16.3125 25.917969 16.3125 26.035156 16.3125 C 26.277344 16.308594 26.519531 16.308594 26.761719 16.308594 C 27.070312 16.308594 27.378906 16.308594 27.691406 16.304688 C 27.929688 16.304688 28.167969 16.304688 28.40625 16.304688 C 28.519531 16.300781 28.632812 16.300781 28.746094 16.300781 C 29.867188 16.292969 29.867188 16.292969 30.3125 16.5625 C 30.585938 16.855469 30.710938 17.046875 30.714844 17.445312 C 30.714844 17.515625 30.71875 17.585938 30.71875 17.660156 C 30.71875 17.738281 30.71875 17.816406 30.71875 17.894531 C 30.71875 17.976562 30.722656 18.058594 30.722656 18.140625 C 30.722656 18.414062 30.726562 18.683594 30.726562 18.953125 C 30.730469 19.140625 30.730469 19.328125 30.734375 19.515625 C 30.738281 20.007812 30.742188 20.5 30.746094 20.996094 C 30.75 21.5 30.753906 22 30.757812 22.503906 C 30.765625 23.492188 30.773438 24.480469 30.78125 25.46875 C 30.878906 25.457031 30.980469 25.445312 31.082031 25.433594 C 31.136719 25.429688 31.191406 25.421875 31.25 25.417969 C 31.742188 25.335938 32.144531 24.929688 32.425781 24.539062 C 32.636719 24.082031 32.679688 23.609375 32.675781 23.109375 C 32.675781 23.050781 32.675781 22.988281 32.675781 22.925781 C 32.679688 22.730469 32.675781 22.53125 32.675781 22.332031 C 32.675781 22.191406 32.675781 22.054688 32.675781 21.914062 C 32.675781 21.625 32.675781 21.332031 32.675781 21.042969 C 32.675781 20.671875 32.675781 20.300781 32.675781 19.929688 C 32.679688 19.640625 32.675781 19.355469 32.675781 19.066406 C 32.675781 18.929688 32.675781 18.792969 32.675781 18.65625 C 32.679688 17.4375 32.617188 16.3125 31.75 15.363281 C 30.804688 14.5 29.679688 14.429688 28.460938 14.433594 C 28.351562 14.433594 28.246094 14.433594 28.136719 14.433594 C 27.910156 14.433594 27.683594 14.433594 27.457031 14.433594 C 27.167969 14.433594 26.878906 14.433594 26.589844 14.433594 C 26.367188 14.429688 26.144531 14.433594 25.917969 14.433594 C 25.761719 14.433594 25.605469 14.433594 25.445312 14.429688 C 24.21875 14.4375 23.21875 14.636719 22.34375 15.546875 Z M 22.34375 15.546875 "/>
</g>
</svg>
